<svg width="57" height="57" viewBox="0 0 57 57" fill="none" xmlns="http://www.w3.org/2000/svg">
<g id="Tokens">
<g id="Frame 2147256926">
<g id="Crypto Frame 4">
<g id="Frame 1000004479">
<g id="BTC">
<path id="Vector" d="M27.5158 0C28.1187 0 28.7215 0 29.3244 0C29.3677 0.00711685 29.411 0.0192748 29.4543 0.0207575C31.052 0.0729477 32.6328 0.267178 34.1983 0.590402C36.7301 1.11319 39.1495 1.95595 41.4497 3.13616C44.6594 4.78282 47.4558 6.96236 49.8349 9.67447C52.222 12.3961 54.0279 15.4625 55.2535 18.8686C56.23 21.5819 56.778 24.3803 56.9004 27.2617C56.9019 27.2976 56.8826 27.3424 56.9292 27.3673V29.5317C56.8874 29.5521 56.9025 29.5913 56.9013 29.623C56.8835 30.0524 56.853 30.4812 56.8165 30.9094C56.6647 32.6904 56.3444 34.4408 55.8587 36.1601C54.5667 40.7342 52.2834 44.7454 48.9924 48.1749C46.5131 50.7583 43.6408 52.7978 40.3893 54.3001C37.1544 55.7946 33.7588 56.654 30.2015 56.8758C29.9981 56.8886 29.7906 56.8669 29.5913 56.9289H27.9903C27.7531 56.9215 27.5158 56.9141 27.2786 56.9066C26.0693 56.845 24.8672 56.7222 23.6733 56.5164C21.0617 56.066 18.5566 55.2784 16.1668 54.1331C12.9147 52.5746 10.0594 50.473 7.6091 47.8258C4.96934 44.9735 2.99175 41.716 1.67513 38.0597C0.698045 35.3473 0.150937 32.5486 0.0287639 29.6672C0.0272813 29.6313 0.0465561 29.5865 0 29.5616V27.4565C0.0403288 27.4352 0.0260951 27.3963 0.0272813 27.3643C0.103787 25.3642 0.387868 23.3934 0.889903 21.4561C2.47548 15.3395 5.71987 10.2841 10.6234 6.29812C12.351 4.89373 14.2301 3.72419 16.2395 2.76697C18.5726 1.65526 21.0128 0.873594 23.5595 0.427011C24.7818 0.212616 26.0124 0.0750235 27.2528 0.0272813C27.3409 0.0240194 27.431 0.0355843 27.5161 0.000296535L27.5158 0ZM37.0459 28.9952C37.131 28.9718 37.1906 28.9546 37.2505 28.9386C38.7382 28.5395 39.849 27.6804 40.4893 26.2603C40.897 25.3562 41.0897 24.4013 41.0844 23.4118C41.0791 22.4181 40.795 21.5056 40.225 20.686C39.7031 19.9352 39.0256 19.3519 38.2649 18.8585C37.2191 18.1794 36.0821 17.6928 34.909 17.2859C34.783 17.2424 34.7608 17.1908 34.7922 17.0653C35.1979 15.4531 35.597 13.839 36.0033 12.227C36.0317 12.1144 36.0047 12.0871 35.9004 12.0616C34.9467 11.8282 33.9939 11.5913 33.0427 11.3484C32.9309 11.3199 32.9024 11.346 32.8763 11.4513C32.4867 13.0271 32.0914 14.6011 31.7008 16.1766C31.6765 16.2745 31.6566 16.3136 31.5392 16.2848C30.7967 16.1031 30.0521 15.9284 29.3063 15.7591C29.193 15.7333 29.1663 15.7042 29.1963 15.5856C29.5931 14.0119 29.9824 12.4361 30.3786 10.8621C30.4103 10.7367 30.397 10.6851 30.2585 10.6516C29.333 10.428 28.4102 10.1943 27.4865 9.96419C27.2958 9.91674 27.2964 9.91763 27.2484 10.1104C26.8513 11.7046 26.4525 13.2984 26.0587 14.8932C26.0284 15.0157 25.9893 15.0444 25.86 15.0121C25.2144 14.8505 24.565 14.7067 23.9206 14.5385C22.5604 14.1833 21.1928 13.8559 19.8296 13.5125C19.738 13.4894 19.7104 13.5096 19.6894 13.595C19.434 14.6296 19.177 15.6636 18.9166 16.697C18.8923 16.7937 18.905 16.8281 19.0118 16.8524C19.6176 16.9909 20.2228 17.1344 20.8251 17.288C21.1881 17.3805 21.5516 17.4775 21.8745 17.6794C22.4528 18.0409 22.7309 18.7152 22.5681 19.37C22.0833 21.3188 21.5979 23.2677 21.1121 25.2162C20.4509 27.8681 19.7929 30.5209 19.1236 33.1708C19.0109 33.617 18.7244 33.929 18.2553 34.0277C17.9985 34.0817 17.7423 34.0283 17.4932 33.9667C16.8373 33.8042 16.1825 33.6366 15.529 33.464C15.4296 33.4376 15.3929 33.459 15.3537 33.5497C14.8754 34.6597 14.3938 35.7684 13.9102 36.876C13.8681 36.972 13.8616 37.0186 13.9885 37.0435C14.2207 37.0886 14.4484 37.1556 14.6779 37.2134C16.4379 37.6579 18.1978 38.1024 19.9577 38.5472C20.1472 38.595 20.1472 38.5965 20.0989 38.7895C19.6989 40.3932 19.3 41.9968 18.8958 43.5993C18.8608 43.7378 18.8674 43.7944 19.0293 43.833C19.9651 44.0563 20.8974 44.2941 21.8298 44.531C21.9338 44.5574 21.9783 44.5521 22.0086 44.4296C22.4071 42.8105 22.8146 41.1932 23.2134 39.5741C23.2436 39.4514 23.2828 39.4339 23.3993 39.465C24.1238 39.6584 24.8491 39.8481 25.5768 40.0287C25.7159 40.0631 25.7369 40.1135 25.7037 40.2452C25.2995 41.8426 24.9022 43.4419 24.4989 45.0393C24.4692 45.1564 24.4906 45.195 24.6122 45.2246C25.5516 45.453 26.4898 45.6869 27.426 45.928C27.5692 45.9648 27.6039 45.9239 27.6362 45.7928C28.0365 44.169 28.444 42.5466 28.8458 40.9231C28.8704 40.8234 28.8998 40.7825 29.0118 40.8045C29.666 40.9329 30.3246 41.0343 30.9871 41.109C32.2978 41.257 33.6076 41.3041 34.9138 41.0654C36.7132 40.7366 38.141 39.8443 39.0994 38.2655C39.8514 37.0266 40.2935 35.6774 40.4024 34.2312C40.4896 33.0723 40.2301 31.9935 39.5439 31.0369C39.0431 30.3388 38.3936 29.8051 37.668 29.3582C37.4723 29.2375 37.271 29.1263 37.0465 28.9955L37.0459 28.9952Z" fill="#000000"/>
<path id="Vector_2" d="M27.2786 56.9295C27.2786 56.9221 27.2786 56.9146 27.2786 56.9072C27.5158 56.9146 27.753 56.9221 27.9903 56.9295H27.2786Z" fill="#000000"/>
<path id="Vector_3" d="M30.1518 36.7084C28.9846 36.7167 27.8414 36.5293 26.7063 36.2811C25.9306 36.1115 25.1649 35.901 24.3954 35.7064C24.278 35.6768 24.2765 35.6308 24.3014 35.5318C24.8521 33.3315 25.3998 31.1303 25.9481 28.9291C25.9659 28.8577 25.9691 28.7906 26.0854 28.8176C27.3863 29.1216 28.6964 29.3917 29.9605 29.8347C30.9183 30.1704 31.8465 30.5687 32.6536 31.2009C33.2333 31.6549 33.6968 32.1984 33.8884 32.9282C34.2967 34.4826 33.4415 35.9822 31.8764 36.4665C31.3151 36.6402 30.7368 36.6981 30.152 36.7084H30.1518Z" fill="#000000"/>
<path id="Vector_4" d="M31.4511 26.4937C30.1906 26.4822 29.0145 26.231 27.8462 25.9312C27.5262 25.8491 27.2086 25.7577 26.8869 25.6827C26.7772 25.6572 26.7739 25.6157 26.7976 25.5205C27.297 23.526 27.7931 21.5303 28.2907 19.5355C28.3046 19.4792 28.2999 19.405 28.4057 19.4297C29.5243 19.6906 30.652 19.9172 31.734 20.3142C32.3888 20.5544 33.0219 20.8403 33.5921 21.2492C34.1668 21.6614 34.633 22.161 34.8385 22.8567C35.3022 24.4269 34.3702 25.9784 32.7417 26.3573C32.3013 26.4596 31.8541 26.4908 31.4508 26.4934L31.4511 26.4937Z" fill="#000000"/>
</g>
</g>
</g>
</g>
</g>
</svg>
