<svg width="57" height="57" viewBox="0 0 57 57" fill="none" xmlns="http://www.w3.org/2000/svg">
<g id="Tokens">
<g id="Frame 2147256926">
<g id="Crypto Frame 4">
<g id="Frame 1000004479">
<g id="ETH Circle" clip-path="url(#clip0_275_5064)">
<g id="qd3lfq.tif">
<g id="Group">
<path id="Vector" d="M0.00182896 28.8094C0.00137314 28.7844 0.00114522 28.7593 0.00091731 28.7342C-0.00569218 28.164 0.0275832 27.5887 0.0681518 27.0203C0.113279 26.3881 0.125814 25.7533 0.221994 25.1247C0.260967 24.8704 0.268488 24.611 0.310424 24.3571C0.386775 23.897 0.476573 23.4391 0.563864 22.981C0.752804 21.9891 1.00191 21.0123 1.30048 20.0477C2.32769 16.7291 3.90736 13.6976 6.03972 10.9554C7.88559 8.58163 10.0585 6.55662 12.5476 4.86983C14.9525 3.24002 17.548 2.01134 20.3301 1.17877C21.5132 0.824819 22.7107 0.528532 23.9378 0.365573C24.4811 0.293325 25.0233 0.21196 25.566 0.134469C25.7203 0.12011 25.8746 0.10598 26.0287 0.0916213C26.0416 0.0900259 26.0546 0.0888863 26.0679 0.0877467C26.252 0.0731603 26.4362 0.0588017 26.6203 0.0442152C26.649 0.0419361 26.6775 0.039657 26.7062 0.0373778C26.7965 0.0373778 26.8865 0.0373778 26.9768 0.0376057C27.2373 0.0262101 27.4976 0.0145865 27.7581 0.00319079C28.2278 0.00205122 28.6978 0.00113957 29.1675 0C29.4127 0.010484 29.658 0.0207401 29.9032 0.0312242C29.9786 0.0300846 30.0538 0.028945 30.1293 0.0280334C30.173 0.0305404 30.2168 0.0332754 30.2606 0.0357824C30.4299 0.0485456 30.599 0.0615367 30.7683 0.0742998C30.7966 0.0761231 30.8249 0.0777185 30.8531 0.0795419C31.007 0.0932167 31.1608 0.106891 31.3144 0.120794C31.745 0.181191 32.1757 0.239081 32.6058 0.302441C33.0591 0.368992 33.5152 0.423236 33.9637 0.514401C34.5941 0.642488 35.2218 0.786986 35.8444 0.947665C36.9471 1.2321 38.024 1.59745 39.0815 2.02137C41.5628 3.01575 43.8602 4.3315 45.9688 5.97316C49.1083 8.4173 51.6272 11.3911 53.5253 14.8878C54.9033 17.4263 55.8701 20.1152 56.4234 22.9509C56.48 23.2404 56.5098 23.5348 56.5586 23.8256C56.5982 24.0622 56.6575 24.2958 56.6908 24.5331C56.8275 25.5104 56.9217 26.4918 56.9347 27.4795C56.9362 28.0733 56.9378 28.6667 56.9394 29.2605C56.9098 29.8209 56.8818 30.3816 56.849 30.942C56.8423 31.0539 56.8134 31.1645 56.8027 31.2764C56.784 31.4701 56.7803 31.6656 56.7544 31.8584C56.7184 32.126 56.6657 32.3913 56.624 32.6584C56.5565 33.0908 56.5069 33.5265 56.4237 33.9559C56.2037 35.0889 55.9127 36.2043 55.5498 37.3003C53.9312 42.1868 51.2072 46.3506 47.3548 49.7649C44.0217 52.7189 40.1944 54.7704 35.8941 55.9286C35.0905 56.1451 34.2705 56.3029 33.4548 56.472C33.0648 56.5529 32.668 56.6019 32.2728 56.6557C31.9079 56.7054 31.5414 56.7418 31.1754 56.7842C31.0222 56.7986 30.8691 56.8127 30.7159 56.8271L30.7187 56.8305C30.4702 56.8453 30.2218 56.8603 29.9734 56.8752C29.7056 56.8923 29.438 56.9096 29.1702 56.9267C28.7755 56.9276 28.3807 56.9285 27.986 56.9296C27.7168 56.913 27.4479 56.8966 27.1787 56.8799C26.946 56.8674 26.7133 56.8546 26.4806 56.8421C26.4528 56.8405 26.425 56.8391 26.3972 56.8376C26.2429 56.8241 26.0884 56.8107 25.9341 56.7972C25.9058 56.7943 25.8775 56.7913 25.8493 56.7881C25.7552 56.7772 25.6613 56.766 25.5671 56.755C25.3878 56.7386 25.2082 56.7241 25.029 56.7056C24.753 56.6771 24.475 56.6598 24.2019 56.6126C23.7523 56.5349 23.3037 56.4483 22.8593 56.3455C22.0349 56.155 21.2042 55.9829 20.3944 55.7417C19.5821 55.4999 18.7837 55.2046 17.9936 54.8957C15.0407 53.7413 12.3723 52.1093 9.96371 50.0519C8.05493 48.4212 6.39982 46.5605 4.98379 44.4876C3.20926 41.8901 1.90764 39.0721 1.06641 36.0427C0.789271 35.0447 0.556343 34.0359 0.399538 33.0101C0.187351 31.6214 0.0234808 30.2154 0.00182896 28.8094ZM29.34 49.7216C29.3651 49.7253 29.4038 49.7412 29.4129 49.7308C29.4676 49.6681 29.5169 49.6004 29.5656 49.5327C32.1623 45.941 34.7584 42.3493 37.3548 38.7576C39.0888 36.3591 40.8228 33.9605 42.5558 31.5615C42.5882 31.5168 42.6119 31.466 42.667 31.3705C42.5574 31.4286 42.4977 31.4576 42.4403 31.4908C41.6852 31.9284 40.9306 32.3665 40.1757 32.8043C37.5369 34.3347 34.8979 35.8647 32.2591 37.3952C31.3926 37.8977 30.5277 38.4025 29.6593 38.9019C29.5572 38.9607 29.4382 38.9903 29.3272 39.0334C29.2817 39.006 29.2365 38.9782 29.1907 38.9516C25.667 36.9065 22.1432 34.8614 18.6192 32.8166C17.8712 32.3824 17.1236 31.9473 16.3747 31.5148C16.3061 31.4751 16.2279 31.4514 16.1543 31.4204C16.1577 31.4794 16.1753 31.5038 16.1928 31.5282C18.5481 34.7883 20.9031 38.0486 23.2586 41.3084C25.2852 44.1131 27.3125 46.9174 29.3396 49.7219L29.34 49.7216ZM29.3794 7.15694C29.3628 7.16857 29.3459 7.17996 29.3293 7.19159C29.2885 7.25563 29.2468 7.31899 29.2071 7.38372C25.7068 13.0886 22.2065 18.7935 18.7067 24.4987C17.8418 25.9088 16.9787 27.32 16.1149 28.7308C16.0011 28.8741 16.1484 28.8976 16.2197 28.9393C17.156 29.4868 18.0943 30.0304 19.0324 30.5746C21.748 32.1506 24.4636 33.7264 27.1792 35.3025C27.8481 35.6908 28.5161 36.081 29.1866 36.4669C29.2518 36.5045 29.3147 36.5881 29.4093 36.522C29.4932 36.4887 29.5825 36.4648 29.66 36.4204C30.2325 36.0924 30.8032 35.7608 31.3739 35.4294C32.856 34.5681 34.3379 33.7059 35.82 32.8444C36.7513 32.3031 37.6826 31.7618 38.6143 31.2214C39.3099 30.818 40.0073 30.4178 40.7024 30.0137C41.2861 29.6746 41.8686 29.3334 42.4494 28.989C42.5173 28.9487 42.569 28.8817 42.6283 28.827C42.7005 28.7119 42.5959 28.6435 42.5501 28.5683C41.602 27.0146 40.6509 25.463 39.6991 23.9116C38.0139 21.1643 36.3276 18.4177 34.6422 15.6704C32.941 12.8974 31.2406 10.1237 29.5388 7.35113C29.5 7.28822 29.4458 7.23489 29.3988 7.177C29.3977 7.16515 29.3913 7.15854 29.3797 7.15694H29.3794Z" fill="#000000"/>
<path id="Vector_2" d="M26.1362 0.0822031C26.3204 0.0680724 26.5045 0.0541697 26.6889 0.0400391C26.5048 0.0541697 26.3206 0.0680724 26.1362 0.0822031Z" fill="#000000"/>
<path id="Vector_3" d="M30.3289 0.0410156C30.498 0.0542346 30.6674 0.0676815 30.8367 0.0809005C30.6676 0.0676815 30.4983 0.0542346 30.3289 0.0410156Z" fill="#000000"/>
<path id="Vector_4" d="M31.1066 56.791C30.9534 56.8049 30.8003 56.8188 30.6469 56.8327C30.8 56.8188 30.9532 56.8049 31.1066 56.791Z" fill="#000000"/>
</g>
</g>
</g>
</g>
</g>
</g>
</g>
<defs>
<clipPath id="clip0_275_5064">
</clipPath>
</defs>
</svg>
