<svg width="56" height="56" viewBox="0 0 56 56" fill="none" xmlns="http://www.w3.org/2000/svg">
<g id="Tokens">
<g id="Frame 2147256926">
<g id="Crypto Frame 4">
<g id="Frame 1000004490">
<g id="Solana">
<path id="Subtract" d="M27.9649 0C43.4097 0 55.9308 12.5201 55.9308 27.9648C55.9308 43.4096 43.4097 55.9297 27.9649 55.9297C12.5204 55.9294 9.41888e-05 43.4094 9.15527e-05 27.9648C9.15527e-05 12.5202 12.5204 0.00026169 27.9649 0ZM17.003 34.8242C16.6963 34.8242 16.4068 34.9469 16.1964 35.1572L10.6993 40.6533C10.3399 41.0127 10.5942 41.6269 11.1026 41.627H38.9278C39.2346 41.6269 39.5241 41.5043 39.7345 41.2939L45.2306 35.7969C45.5899 35.4374 45.3357 34.8242 44.8272 34.8242H17.003ZM11.1026 24.4961C10.5944 24.4962 10.3404 25.1093 10.6993 25.4688L16.1964 30.9658C16.4068 31.1761 16.6963 31.2988 17.003 31.2988H44.8272C45.3356 31.2988 45.5898 30.6856 45.2306 30.3262L39.7345 24.8291C39.5241 24.6188 39.2346 24.4962 38.9278 24.4961H11.1026ZM17.002 14.3018C16.704 14.3018 16.4145 14.4244 16.1954 14.6348L10.6993 20.1309C10.3399 20.4903 10.5942 21.1045 11.1026 21.1045H38.9268C39.2335 21.1045 39.5231 20.9817 39.7335 20.7715L45.2306 15.2744C45.5896 14.915 45.3354 14.302 44.8272 14.3018H17.002Z" fill="#000000"/>
</g>
</g>
</g>
</g>
</g>
</svg>
