<svg width="60" height="57" viewBox="0 0 60 57" fill="none" xmlns="http://www.w3.org/2000/svg">
<g id="Tokens">
<g id="Frame 2147256926">
<g id="Crypto Frame 4">
<g id="Frame 1000004469">
<g id="USDC" clip-path="url(#clip0_275_5064)">
<g id="Group">
<g id="Group_2">
<path id="Vector" d="M29.5007 56.9292C13.1688 56.9394 3.05176e-05 44.2512 3.05176e-05 28.4901C3.05176e-05 12.5662 13.3481 -0.132228 29.7748 4.75027e-05C45.8958 0.132323 59.1279 12.7188 59.0119 28.7038C58.8854 44.414 45.7166 56.9496 29.5007 56.9292ZM31.4829 39.2959C31.8203 39.2145 32.126 39.1433 32.4213 39.0619C35.5105 38.2377 37.8933 35.867 37.5981 32.2854C37.4294 30.23 36.47 28.7241 34.4878 27.8796C33.1698 27.3098 31.7781 27.0961 30.3758 26.8519C29.2266 26.6586 28.0668 26.4347 26.9597 26.0786C25.821 25.7123 25.4204 24.7965 25.452 23.6569C25.4942 22.558 26.0108 21.7949 27.0441 21.3574C27.9297 20.9809 28.8576 20.9911 29.7854 21.042C31.4302 21.1234 32.59 21.8458 33.1277 23.3822C33.3069 23.891 33.6654 24.1046 34.2031 24.1046C34.7303 24.1046 35.2575 24.1046 35.7846 24.1046C36.6492 24.0945 36.9971 23.6773 36.8073 22.8633C36.2802 20.5434 34.2875 18.7119 31.8203 18.3456C31.4407 18.2845 31.3247 18.1624 31.3353 17.8063C31.3564 17.0737 31.3458 16.3513 31.3458 15.6187C31.3458 14.9268 30.9346 14.5096 30.2177 14.4791C29.7221 14.4587 29.2371 14.4689 28.7416 14.4791C27.9508 14.4791 27.5396 14.8556 27.508 15.6187C27.4869 16.1071 27.508 16.6057 27.508 17.0941C27.508 18.1014 27.508 18.1014 26.5169 18.3354C23.6385 19.0375 21.7618 20.9199 21.5298 23.5043C21.3084 26.0888 22.2362 28.0525 24.8299 29.0294C25.7578 29.3753 26.7383 29.589 27.7083 29.823C29.1317 30.1588 30.6183 30.3318 31.989 30.7998C33.6443 31.3594 34.182 33.1502 33.2964 34.6358C32.6321 35.7449 31.5672 36.2434 30.302 36.3655C27.9614 36.5996 25.3782 36.0196 24.9248 33.2723C24.851 32.845 24.4926 32.6211 24.0392 32.6211C23.4804 32.611 22.911 32.611 22.3522 32.611C21.319 32.611 21.0027 32.9976 21.2135 33.9846C21.8461 36.8234 23.7756 38.3904 26.6013 39.0721C26.9492 39.1535 27.3077 39.2247 27.6767 39.3061C27.6767 40.2422 27.6767 41.1173 27.6767 42.0025C27.6767 42.6537 28.0668 43.0302 28.7521 43.0505C29.2266 43.0607 29.701 43.0607 30.1755 43.0607C31.1244 43.0607 31.4934 42.7046 31.4934 41.7583C31.4934 40.9443 31.4829 40.1303 31.4829 39.2959ZM35.0677 47.4766C35.0677 47.8531 35.036 48.2296 35.0782 48.5959C35.1415 49.186 35.6476 49.4608 36.2169 49.2573C36.3118 49.2267 36.4172 49.186 36.5121 49.1555C40.5819 47.8531 44.0296 45.6451 46.6971 42.4095C51.0516 37.1287 52.6753 31.1254 51.1887 24.5218C49.3857 16.5344 44.3143 11.2129 36.3645 8.44531C35.5527 8.16041 35.0782 8.50636 35.0466 9.35088C35.0255 9.89016 35.015 10.4396 35.036 10.9789C35.0677 11.6301 35.4051 12.088 36.0482 12.322C43.8399 15.1812 48.7215 22.7514 47.7304 30.7082C46.8764 37.5255 43.1334 42.3891 36.607 45.2076C35.0571 45.8792 35.0466 45.8588 35.0677 47.4766ZM7.28558 28.7343C7.34884 29.6297 7.35939 30.5353 7.48591 31.4205C8.37156 37.4848 11.3343 42.3891 16.4479 46.042C18.3562 47.4054 20.4649 48.3924 22.7107 49.1148C23.3328 49.3081 23.6596 49.1962 23.8599 48.5959C23.9865 48.2194 23.9654 47.8022 23.9759 47.3952C23.9865 45.8283 23.9127 45.7265 22.4471 45.1364C22.289 45.0753 22.1308 44.9939 21.9621 44.9227C12.3148 40.7713 7.99199 29.2634 13.7066 19.7803C15.868 16.1885 19.0205 13.6956 23.0165 12.1999C23.7334 11.9353 23.9759 11.5996 23.9865 10.8568C23.997 10.4803 23.9865 10.114 23.9865 9.73753C23.9865 8.37408 23.6385 8.11971 22.3206 8.54706C13.3481 11.4673 7.29612 19.6175 7.28558 28.7343Z" fill="#000000"/>
</g>
</g>
</g>
</g>
</g>
</g>
</g>
<defs>
<clipPath id="clip0_275_5064">
</clipPath>
</defs>
</svg>
