<svg width="57" height="57" viewBox="0 0 57 57" fill="none" xmlns="http://www.w3.org/2000/svg">
<g id="Tokens">
<g id="Frame 2147256926">
<g id="Crypto Frame 4">
<path id="Subtract" d="M28.4648 0C44.1851 0.000179533 56.9285 12.7436 56.9287 28.4639C56.9287 44.1843 44.1852 56.9285 28.4648 56.9287C12.7443 56.9287 0 44.1844 0 28.4639C0.000216928 12.7435 12.7444 0 28.4648 0ZM15.1387 13.5596C15.0875 13.5596 15.0336 13.5625 14.9824 13.5625C14.9796 13.571 14.9734 13.5823 14.9678 13.5908V17.6709C14.9678 18.5022 14.9707 19.3307 14.9707 20.1592C14.9821 20.162 14.9873 20.1683 14.9873 20.1797H24.8789V24.5068C24.5629 24.5296 24.2577 24.5523 23.9502 24.5723C23.6627 24.5922 23.3753 24.6013 23.0879 24.624C22.6325 24.6582 22.1771 24.7033 21.7217 24.7432C21.3544 24.7773 20.9865 24.7944 20.6221 24.8428C19.6883 24.9652 18.7513 25.0854 17.8203 25.2334C16.4368 25.4583 15.0647 25.7542 13.7324 26.2012C12.9979 26.446 12.2801 26.7304 11.6338 27.166C11.3548 27.3511 11.1013 27.5679 10.9248 27.8555C10.703 28.2169 10.7002 28.5838 10.9248 28.9424C10.996 29.0591 11.0848 29.1678 11.1816 29.2646C11.4691 29.5548 11.8104 29.7682 12.1689 29.9531C13.006 30.3859 13.8973 30.677 14.8027 30.9219C16.1579 31.292 17.5364 31.5419 18.9258 31.7412C19.5862 31.838 20.2469 31.9298 20.9102 32.001C21.5762 32.0721 22.2422 32.1177 22.9111 32.1689C23.2584 32.1946 23.6059 32.2145 23.9531 32.2344C24.2606 32.2515 24.5688 32.2682 24.8877 32.2881V45.9795C24.8877 46.0421 24.8896 46.1024 24.8896 46.165C24.9009 46.1679 24.9101 46.1706 24.9131 46.1816C24.9472 46.1817 24.9786 46.1846 25.0127 46.1846H31.9336C31.9706 46.1846 32.0108 46.1825 32.0479 46.1797C32.0507 46.1685 32.0561 46.1623 32.0645 46.1621C32.0645 46.0996 32.0674 46.04 32.0674 45.9775V32.291C32.3834 32.2682 32.6744 32.2455 32.9648 32.2256C33.5256 32.1857 34.0866 32.151 34.6445 32.1055C35.1312 32.0656 35.6208 32.0208 36.1074 31.9639C36.7935 31.8842 37.4828 31.8009 38.166 31.7041C39.5355 31.5077 40.8942 31.252 42.2295 30.8818C43.1602 30.6228 44.0767 30.321 44.9277 29.8486C45.3149 29.6323 45.6796 29.3839 45.9443 29.0166C46.2433 28.5981 46.2459 28.163 45.9355 27.7559C45.8046 27.585 45.6455 27.4306 45.4775 27.2939C45.0648 26.9609 44.5893 26.7334 44.1025 26.5312C42.659 25.9334 41.1441 25.5943 39.6152 25.3096C38.1063 25.0277 36.5856 24.8485 35.0596 24.709C34.5814 24.6635 34.1002 24.627 33.6221 24.5957C33.2122 24.5701 32.7995 24.5579 32.3896 24.5352C32.2843 24.5295 32.1757 24.5094 32.0732 24.4951V20.1709H32.2783C35.5097 20.1681 38.7383 20.168 41.9668 20.168C41.9668 20.1566 41.973 20.1513 41.9844 20.1484C41.9844 20.0858 41.9873 20.0255 41.9873 19.9629V13.583C41.9816 13.5716 41.9757 13.5625 41.9814 13.5625C41.9303 13.5625 41.8763 13.5596 41.8252 13.5596H15.1387ZM24.8818 29.8193C24.8875 29.8307 24.8957 29.8401 24.9014 29.8486C25.2259 29.8686 25.5505 29.891 25.875 29.9053C26.248 29.9224 26.6212 29.9367 26.9941 29.9424C27.9422 29.9538 28.8879 29.9677 29.8359 29.9648C30.3682 29.962 30.9033 29.931 31.4355 29.9082C31.6377 29.8997 31.837 29.8705 32.0391 29.8506C32.0447 29.8421 32.0481 29.8307 32.0537 29.8223V25.0479C32.0593 25.0394 32.0647 25.028 32.0703 25.0195C32.3778 25.0366 32.6827 25.0562 32.9873 25.0732C33.161 25.0818 33.3351 25.0902 33.5088 25.1016C33.8873 25.13 34.266 25.159 34.6445 25.1875C35.0146 25.216 35.3847 25.2355 35.752 25.2725C36.1334 25.3095 36.5121 25.3636 36.8936 25.4092C37.2096 25.4462 37.5257 25.475 37.8389 25.5234C38.3485 25.6003 38.8555 25.6833 39.3594 25.7744C39.7522 25.8456 40.1452 25.9253 40.5352 26.0078C41.2496 26.1587 41.9556 26.3493 42.6416 26.6055C43.0744 26.7649 43.4993 26.9443 43.8779 27.2119C44.023 27.3143 44.1654 27.4308 44.2764 27.5674C44.5582 27.9176 44.5122 28.2938 44.1904 28.624C43.9285 28.8944 43.5956 29.0681 43.2598 29.2275C42.585 29.5464 41.8784 29.7771 41.1553 29.9365C40.1988 30.1472 39.2365 30.335 38.2715 30.5029C37.6024 30.6168 36.9217 30.6849 36.2441 30.7646C35.7488 30.8216 35.2531 30.8674 34.7578 30.9072C34.2084 30.9528 33.6587 30.9903 33.1094 31.0244C32.5857 31.0557 32.0647 31.0837 31.541 31.1064C31.208 31.1235 30.872 31.1348 30.5361 31.1377C29.2606 31.1462 27.9874 31.1611 26.7119 31.1582C26.2309 31.1582 25.7496 31.1205 25.2686 31.1006C24.8131 31.0807 24.3548 31.0724 23.8994 31.0439C23.4353 31.0183 22.9709 30.9754 22.5068 30.9355C21.8806 30.8815 21.2543 30.8272 20.6309 30.7617C19.1846 30.608 17.7468 30.3979 16.3262 30.0791C15.4236 29.8741 14.5321 29.6372 13.6865 29.25C13.3194 29.0821 12.9635 28.8915 12.6846 28.5898C12.3515 28.2283 12.3517 27.8499 12.6904 27.4912C12.7844 27.3916 12.8862 27.2881 13.0029 27.2227C13.3332 27.0376 13.6614 26.8416 14.0088 26.6992C15.0166 26.2836 16.0731 26.0277 17.1406 25.8398C18.1854 25.6577 19.2357 25.5065 20.2861 25.3613C20.807 25.2902 21.3366 25.2555 21.8604 25.21C22.3586 25.1673 22.8572 25.1249 23.3555 25.0879C23.6657 25.068 23.9788 25.0591 24.2891 25.042C24.4798 25.0306 24.674 25.0162 24.8818 25.002V29.8193Z" fill="#000000"/>
</g>
</g>
</g>
</svg>
